<?xml version="1.0" encoding="UTF-8" standalone="no"?>
<!-- Generator: Adobe Illustrator 19.0.0, SVG Export Plug-In . SVG Version: 6.00 Build 0)  -->

<svg
   version="1.1"
   id="Capa_1"
   x="0px"
   y="0px"
   viewBox="0 0 960 480"
   xml:space="preserve"
   sodipodi:docname="fish-bowl.svg"
   width="960"
   height="480"
   inkscape:version="1.1.2 (0a00cf5339, 2022-02-04)"
   xmlns:inkscape="http://www.inkscape.org/namespaces/inkscape"
   xmlns:sodipodi="http://sodipodi.sourceforge.net/DTD/sodipodi-0.dtd"
   xmlns="http://www.w3.org/2000/svg"
   xmlns:svg="http://www.w3.org/2000/svg"><defs
   id="defs79" /><sodipodi:namedview
   id="namedview77"
   pagecolor="#ffffff"
   bordercolor="#666666"
   borderopacity="1.0"
   inkscape:pageshadow="2"
   inkscape:pageopacity="0.0"
   inkscape:pagecheckerboard="0"
   showgrid="false"
   inkscape:zoom="1.3291667"
   inkscape:cx="240"
   inkscape:cy="205.39185"
   inkscape:window-width="1920"
   inkscape:window-height="1015"
   inkscape:window-x="0"
   inkscape:window-y="33"
   inkscape:window-maximized="1"
   inkscape:current-layer="Capa_1" />



<g
   id="g918"
   transform="translate(239.99972)"><path
     style="fill:#06aed5"
     d="m 400.98,328 c 0,-45.416 -20.568,-84.64 -53.848,-112.92 L 364.612,168 H 55.524 l 17.488,47.08 C 39.732,243.36 19.156,282.584 19.156,328 c 0,48.096 19.344,81.376 56.152,112 l -65.24,32 h 400 L 337.34,440 c 36.808,-30.624 63.64,-63.904 63.64,-112 z M 258.068,440 c -20.472,0 -37.896,-12.84 -44.8,-30.88 -10.352,18.04 -36.496,30.88 -67.2,30.88 -27.944,0 -52.168,-23.704 -64.104,-37.792 -4.976,-5.872 -4.976,-14.536 0,-20.408 11.936,-14.096 36.16,-37.8 64.104,-37.8 30.704,0 56.848,12.84 67.2,30.88 6.904,-18.04 24.328,-30.88 44.8,-30.88 l -8,48 z m 16,-136 c -30.704,0 -56.848,-12.84 -67.2,-30.88 -6.904,18.04 -24.328,30.88 -44.8,30.88 l 8,-48 -8,-48 c 20.472,0 37.896,12.84 44.8,30.88 10.352,-18.04 36.496,-30.88 67.2,-30.88 27.944,0 52.168,23.704 64.104,37.792 4.976,5.872 4.976,14.536 0,20.408 -11.936,14.096 -36.16,37.8 -64.104,37.8 z"
     id="path2" /><g
     id="g8">
	<path
   style="fill:#ffb40e"
   d="M 213.268,374.88 C 202.916,356.84 176.772,344 146.068,344 c -27.944,0 -52.168,23.704 -64.104,37.792 -4.976,5.872 -4.976,14.536 0,20.408 11.936,14.096 36.16,37.8 64.104,37.8 30.704,0 56.848,-12.84 67.2,-30.88 6.904,18.04 24.328,30.88 44.8,30.88 l -8,-48 8,-48 c -20.472,0 -37.896,12.84 -44.8,30.88 z"
   id="path4" />
	<path
   style="fill:#ffb40e"
   d="M 338.172,245.792 C 326.236,231.704 302.012,208 274.068,208 c -30.704,0 -56.848,12.84 -67.2,30.88 C 199.964,220.84 182.54,208 162.068,208 l 8,48 -8,48 c 20.472,0 37.896,-12.84 44.8,-30.88 10.352,18.04 36.496,30.88 67.2,30.88 27.944,0 52.168,-23.704 64.104,-37.792 4.968,-5.872 4.968,-14.544 0,-20.416 z"
   id="path6" />
</g><path
     style="fill:#dd3232"
     d="m 334.868,73.12 c 10.352,18.04 36.496,30.88 67.2,30.88 27.944,0 52.168,-23.704 64.104,-37.792 4.976,-5.872 4.976,-14.536 0,-20.408 C 454.236,31.704 430.012,8 402.068,8 371.364,8 345.22,20.84 334.868,38.88 327.964,20.84 310.54,8 290.068,8 l 8,48 -8,48 c 20.472,0 37.896,-12.84 44.8,-30.88 z"
     id="path10" /><g
     id="g44">
	<path
   style="fill:#242a40"
   d="M 2.276,473.808 C 3.116,477.44 6.348,480 10.068,480 h 400 c 3.784,0 7.048,-2.648 7.832,-6.352 0.784,-3.704 -1.144,-7.448 -4.608,-8.968 L 352.196,437.8 c 29.472,-26.208 56.784,-59.92 56.784,-109.8 0,-43.896 -18.576,-84.632 -52.432,-115.296 l 15.568,-41.912 c 0.912,-2.464 0.56,-5.2 -0.936,-7.36 C 369.692,161.28 367.236,160 364.612,160 H 55.524 c -2.624,0 -5.072,1.28 -6.568,3.432 -1.496,2.16 -1.84,4.896 -0.936,7.36 l 15.568,41.912 C 29.732,243.368 11.156,284.104 11.156,328 c 0,43.992 15.464,78.392 49.84,110.112 L 6.548,464.824 c -3.344,1.632 -5.112,5.352 -4.272,8.984 z m 76.56,-26.632 c 2.432,-1.184 4.096,-3.536 4.424,-6.224 0.32,-2.696 -0.744,-5.368 -2.832,-7.104 C 43.084,402.784 27.156,371.128 27.156,328 c 0,-40.92 18.128,-78.856 51.032,-106.832 2.56,-2.176 3.496,-5.728 2.32,-8.88 L 67.028,176 h 286.08 l -13.48,36.288 c -1.168,3.16 -0.24,6.704 2.32,8.88 32.904,27.968 51.032,65.904 51.032,106.832 0,48.728 -30.712,80.848 -60.752,105.848 -2.128,1.776 -3.192,4.512 -2.808,7.264 0.384,2.744 2.168,5.088 4.696,6.2 L 372.02,464 H 44.548 Z"
   id="path12" />
	<path
   style="fill:#242a40"
   d="m 264.172,338.832 c -1.52,-1.8 -3.752,-2.832 -6.104,-2.832 -18.504,0 -35.696,9.344 -46.016,24.192 C 197.42,345.2 173.012,336 146.068,336 c -31.16,0 -57.36,25.456 -70.2,40.624 -7.552,8.904 -7.552,21.84 0,30.752 12.84,15.168 39.04,40.624 70.2,40.624 26.944,0 51.352,-9.2 65.984,-24.192 10.32,14.848 27.512,24.192 46.016,24.192 2.352,0 4.584,-1.032 6.104,-2.832 1.52,-1.8 2.168,-4.168 1.784,-6.488 L 258.18,392 l 7.784,-46.688 c 0.384,-2.32 -0.272,-4.688 -1.792,-6.48 z M 248.42,430.8 c -12.44,-3.144 -22.976,-12.224 -27.68,-24.536 -1.104,-2.88 -3.768,-4.872 -6.848,-5.12 -3.072,-0.2 -6.024,1.32 -7.56,4 C 197.108,421.2 172.9,432 146.068,432 c -24.696,0 -46.936,-21.904 -58,-34.968 -2.432,-2.864 -2.432,-7.192 0,-10.064 11.064,-13.064 33.304,-34.968 58,-34.968 26.832,0 51.04,10.8 60.256,26.856 1.536,2.68 4.504,4.288 7.56,4 3.08,-0.24 5.744,-2.232 6.848,-5.12 4.704,-12.312 15.248,-21.4 27.68,-24.536 l -6.248,37.488 c -0.144,0.864 -0.144,1.76 0,2.624 z"
   id="path14" />
	<rect
   x="114.068"
   y="384"
   style="fill:#242a40"
   width="16"
   height="16"
   id="rect16" />
	<path
   style="fill:#242a40"
   d="m 344.268,271.376 c 7.552,-8.904 7.552,-21.84 0,-30.752 -12.84,-15.168 -39.04,-40.624 -70.2,-40.624 -26.944,0 -51.352,9.2 -65.984,24.192 C 197.764,209.344 180.564,200 162.068,200 c -2.352,0 -4.584,1.032 -6.104,2.832 -1.52,1.8 -2.168,4.168 -1.784,6.488 l 7.776,46.68 -7.784,46.688 c -0.384,2.32 0.264,4.688 1.784,6.488 1.52,1.8 3.76,2.824 6.112,2.824 18.496,0 35.696,-9.344 46.016,-24.192 14.632,14.992 39.04,24.192 65.984,24.192 31.16,0 57.36,-25.456 70.2,-40.624 z m -12.2,-10.344 c -11.064,13.064 -33.304,34.968 -58,34.968 -26.832,0 -51.04,-10.8 -60.256,-26.856 -1.432,-2.496 -4.088,-4.024 -6.944,-4.024 -0.2,0 -0.416,0.008 -0.624,0.024 -3.08,0.24 -5.744,2.232 -6.848,5.12 -4.704,12.312 -15.248,21.4 -27.68,24.536 l 6.248,-37.488 c 0.144,-0.864 0.144,-1.76 0,-2.624 L 171.716,217.2 c 12.44,3.144 22.976,12.224 27.68,24.536 1.104,2.88 3.768,4.872 6.848,5.12 3.16,0.224 6.024,-1.32 7.56,-4 C 223.028,226.8 247.236,216 274.068,216 c 24.696,0 46.936,21.904 58,34.968 2.432,2.864 2.432,7.2 0,10.064 z"
   id="path18" />
	<rect
   x="290.06799"
   y="248"
   style="fill:#242a40"
   width="16"
   height="16"
   id="rect20" />
	<rect
   x="50.068001"
   y="344"
   style="fill:#242a40"
   width="16"
   height="16"
   id="rect22" />
	<rect
   x="66.068001"
   y="312"
   style="fill:#242a40"
   width="16"
   height="16"
   id="rect24" />
	<rect
   x="82.068001"
   y="280"
   style="fill:#242a40"
   width="16"
   height="16"
   id="rect26" />
	<path
   style="fill:#242a40"
   d="m 472.268,71.376 c 7.552,-8.904 7.552,-21.84 0,-30.752 C 459.428,25.456 433.228,0 402.068,0 375.124,0 350.716,9.2 336.084,24.192 325.764,9.344 308.564,0 290.068,0 c -2.352,0 -4.584,1.032 -6.104,2.832 -1.52,1.8 -2.168,4.168 -1.784,6.488 l 7.776,46.68 -7.784,46.688 c -0.384,2.32 0.264,4.688 1.784,6.488 1.52,1.8 3.76,2.824 6.112,2.824 18.496,0 35.696,-9.344 46.016,-24.192 14.632,14.992 39.04,24.192 65.984,24.192 31.16,0 57.36,-25.456 70.2,-40.624 z m -12.2,-10.344 C 449.004,74.096 426.764,96 402.068,96 c -26.832,0 -51.04,-10.8 -60.256,-26.856 -1.432,-2.496 -4.088,-4.024 -6.944,-4.024 -0.2,0 -0.416,0.008 -0.624,0.024 -3.08,0.24 -5.744,2.232 -6.848,5.12 -4.704,12.312 -15.248,21.4 -27.68,24.536 l 6.248,-37.488 c 0.144,-0.864 0.144,-1.76 0,-2.624 L 299.716,17.2 c 12.44,3.144 22.976,12.224 27.68,24.536 1.104,2.88 3.768,4.872 6.848,5.12 3.104,0.256 6.024,-1.32 7.56,-4 C 351.028,26.8 375.236,16 402.068,16 c 24.696,0 46.936,21.904 58,34.968 2.432,2.864 2.432,7.2 0,10.064 z"
   id="path28" />
	<rect
   x="418.06799"
   y="48"
   style="fill:#242a40"
   width="16"
   height="16"
   id="rect30" />
	<path
   style="fill:#242a40"
   d="m 264.828,16.688 c -5.68,0.592 -11.336,1.56 -16.8,2.888 l 3.768,15.544 c 4.776,-1.16 9.72,-2.008 14.704,-2.528 z"
   id="path32" />
	<path
   style="fill:#242a40"
   d="m 154.716,110.28 15.44,4.2 c 1.304,-4.784 2.944,-9.528 4.872,-14.112 l -14.744,-6.216 c -2.208,5.24 -4.08,10.664 -5.568,16.128 z"
   id="path34" />
	<path
   style="fill:#242a40"
   d="m 231.756,24.688 c -5.272,2.056 -10.464,4.488 -15.424,7.224 l 7.736,14 c 4.336,-2.392 8.88,-4.52 13.496,-6.32 z"
   id="path36" />
	<path
   style="fill:#242a40"
   d="m 150.236,144 h 16 c 0,-4.984 0.328,-10 0.976,-14.896 l -15.856,-2.096 c -0.744,5.584 -1.12,11.304 -1.12,16.992 z"
   id="path38" />
	<path
   style="fill:#242a40"
   d="m 167.972,78.912 13.776,8.144 c 2.52,-4.264 5.36,-8.416 8.44,-12.32 l -12.576,-9.888 c -3.52,4.456 -6.752,9.192 -9.64,14.064 z"
   id="path40" />
	<path
   style="fill:#242a40"
   d="m 211.532,53.984 -9.544,-12.84 c -4.552,3.392 -8.912,7.104 -12.976,11.04 l 11.152,11.488 c 3.552,-3.472 7.384,-6.728 11.368,-9.688 z"
   id="path42" />
</g></g>
<g
   id="g46">
</g>
<g
   id="g48">
</g>
<g
   id="g50">
</g>
<g
   id="g52">
</g>
<g
   id="g54">
</g>
<g
   id="g56">
</g>
<g
   id="g58">
</g>
<g
   id="g60">
</g>
<g
   id="g62">
</g>
<g
   id="g64">
</g>
<g
   id="g66">
</g>
<g
   id="g68">
</g>
<g
   id="g70">
</g>
<g
   id="g72">
</g>
<g
   id="g74">
</g>
</svg>
